<?xml version="1.0" encoding="UTF-8"?> <svg xmlns="http://www.w3.org/2000/svg" id="Layer_1" data-name="Layer 1" viewBox="0 0 160 40"><defs><style>.cls-1{fill:#ec3b21;fill-rule:evenodd;}.cls-2{fill:#bfbfbf;}</style></defs><path class="cls-1" d="M9.45,15.24h0a3.13,3.13,0,0,1-3.12-3.11A3.09,3.09,0,0,1,9.38,9a3.13,3.13,0,0,1,3.11,3.12v0h0v3.06ZM32.74,28.51v0l-4,0h0a3.06,3.06,0,0,1-3.09,2.87,3.1,3.1,0,0,1-3.12-3.07,3,3,0,0,1,3.09-3h7.09v0h0l0-13.13a7.14,7.14,0,0,0-7.11-7.11,7,7,0,0,0-7.06,7.06,7.22,7.22,0,0,0,.73,3.11H16.49l0-3.11A7.14,7.14,0,0,0,9.36,5.05,7,7,0,0,0,2.3,12.11a7.14,7.14,0,0,0,7.11,7.11h3.11v2H9.42a7,7,0,0,0-7.06,7.06,7.14,7.14,0,0,0,7.11,7.11,7,7,0,0,0,7.06-6.92h-4a3.07,3.07,0,0,1-3.09,3,3.13,3.13,0,0,1-3.12-3.11,3.08,3.08,0,0,1,3.09-3.1h3.1l4,0,0-6,9.12,0h.09l0-4H25.6a3.13,3.13,0,0,1-3.12-3.12,3.07,3.07,0,0,1,3.09-3.09,3.13,3.13,0,0,1,3.12,3.11v3.11h0v6H25.63a7,7,0,0,0-7.06,7.06,7.14,7.14,0,0,0,7.11,7.11,7,7,0,0,0,7.06-6.93h0v0Z"></path><rect class="cls-2" x="40.85" y="4.33" width="0.87" height="31.88"></rect><path d="M49.31,30.58v-20H59.85c3.82,0,5.77,2.43,5.77,5.1a4.45,4.45,0,0,1-3.45,4.6A4.85,4.85,0,0,1,66,25.18c0,3-2,5.4-5.83,5.4Zm12-14.18a2.16,2.16,0,0,0-2.35-2.19H53.58v4.36h5.34A2.14,2.14,0,0,0,61.27,16.4Zm.39,8.18a2.34,2.34,0,0,0-2.59-2.35H53.58v4.66h5.49C60.7,26.89,61.66,26,61.66,24.58Z"></path><path d="M80.55,30.58l-3.93-7.12H73.49v7.12H69.23v-20H78.6c4.18,0,6.73,2.73,6.73,6.45A5.74,5.74,0,0,1,80.94,23l4.51,7.63ZM81,17a2.72,2.72,0,0,0-3-2.7H73.49v5.41H78A2.72,2.72,0,0,0,81,17Z"></path><path d="M88.55,30.58v-20h4.26v20Z"></path><path d="M110.6,30.58,101,17.52V30.58H96.78v-20h4.38l9.29,12.58V10.55h4.26v20Z"></path><path d="M117.72,20.58c0-6.34,4.8-10.36,10.66-10.36a9.36,9.36,0,0,1,8.29,4.47l-3.54,1.92A5.68,5.68,0,0,0,128.38,14a6.24,6.24,0,0,0-6.28,6.58,6.25,6.25,0,0,0,6.28,6.58,6.78,6.78,0,0,0,4.27-1.53V23.22h-5.29V19.5h9.55v7.69A11.11,11.11,0,0,1,128.38,31C122.52,31,117.72,26.89,117.72,20.58Z"></path><path d="M139.35,20.58c0-6.34,4.8-10.36,10.66-10.36a9.36,9.36,0,0,1,8.29,4.47l-3.54,1.92A5.68,5.68,0,0,0,150,14a6.24,6.24,0,0,0-6.28,6.58A6.25,6.25,0,0,0,150,27.16a6.78,6.78,0,0,0,4.27-1.53V23.22H149V19.5h9.55v7.69A11.11,11.11,0,0,1,150,31C144.15,31,139.35,26.89,139.35,20.58Z"></path></svg> 