<svg xmlns="http://www.w3.org/2000/svg" width="31" height="30" viewBox="0 0 31 30">
    <path fill="#B5B5BB" fill-rule="evenodd" d="M15.765 0c-8.284 0-15 6.716-15 15 0 8.284 6.716 15 15 15 8.284 0 15-6.716 15-15 0-8.284-6.717-15-15-15zm9.418 24.835c-.711-.236-1.439-.457-2.143-.64-1.577-.412-2.899-1.332-2.899-1.332-.195-.113-.028-1.133-.028-1.133l-1.115-.17c0-.084-.083-1.33-.083-1.33 1.17-.398 1.048-2.74 1.048-2.74.744.416 1.226-1.434 1.226-1.434.88-2.573-.436-2.418-.436-2.418.418-1.926 0-4.74 0-4.74-.585-5.212-9.6-3.569-8.249-1.926-3.204-.907-2.09 5.268-2.09 5.268l.557 1.53c-1.096.717-.334 1.586-.297 2.587.055 1.477.948 1.17.948 1.17.056 2.437 1.245 2.757 1.245 2.757.223 1.53 0 1.398 0 1.398h-.975c.047.387-.084 1.038-.084 1.038-1.247.56-1.513.889-2.75 1.436-.765.338-1.594.683-2.373.997-2.785-2.518-4.54-6.171-4.54-10.231 0-7.577 6.11-13.741 13.62-13.741 7.511 0 13.62 6.164 13.62 13.74.001 3.894-1.615 7.41-4.202 9.914z"/>
</svg>
